<svg xmlns="http://www.w3.org/2000/svg" width="32" height="32" viewBox="0 0 32 32">
    <g fill="none" fill-rule="evenodd">
        <g>
            <g>
                <path d="M0 0L32 0 32 32 0 32z" transform="translate(-1224.000000, -27.000000) translate(1224.000000, 27.000000)"/>
                <path fill="#252525" stroke="#FFF" stroke-width=".933" d="M9.333 24c-1.466 0-2.653 1.2-2.653 2.667 0 1.466 1.187 2.666 2.653 2.666 1.467 0 2.667-1.2 2.667-2.666C12 25.2 10.8 24 9.333 24zm13.334 0c-1.467 0-2.654 1.2-2.654 2.667 0 1.466 1.187 2.666 2.654 2.666 1.466 0 2.666-1.2 2.666-2.666 0-1.467-1.2-2.667-2.666-2.667zm-1.934-6.667c1 0 1.88-.546 2.334-1.373l4.773-8.653c.493-.88-.147-1.974-1.16-1.974H6.947L5.693 2.667h-4.36v2.666H4l4.8 10.12L7 18.707c-.973 1.786.307 3.96 2.333 3.96h16V20h-16l1.467-2.667h9.933zM8.213 8h16.2l-3.68 6.667h-9.36L8.213 8z" transform="translate(-1224.000000, -27.000000) translate(1224.000000, 27.000000)"/>
            </g>
        </g>
    </g>
</svg>
