<svg xmlns="http://www.w3.org/2000/svg" width="32" height="32" viewBox="0 0 32 32">
    <g fill="none" fill-rule="evenodd">
        <g>
            <g>
                <path d="M0 0L32 0 32 32 0 32z" transform="translate(-1288.000000, -27.000000) translate(1288.000000, 27.000000)"/>
                <path fill="#252525" stroke="#FFF" stroke-width=".933" d="M8.72 6.667c.08 1.186.28 2.346.6 3.453l-1.6 1.6c-.547-1.6-.893-3.293-1.013-5.053H8.72m13.147 16.026c1.133.32 2.293.52 3.466.6v1.987c-1.76-.12-3.453-.467-5.066-1l1.6-1.587M10 4H5.333C4.6 4 4 4.6 4 5.333 4 17.853 14.147 28 26.667 28 27.4 28 28 27.4 28 26.667v-4.654c0-.733-.6-1.333-1.333-1.333-1.654 0-3.267-.267-4.76-.76-.134-.053-.28-.067-.414-.067-.346 0-.68.134-.946.387l-2.934 2.933c-3.773-1.933-6.866-5.013-8.786-8.786l2.933-2.934c.373-.373.48-.893.333-1.36-.493-1.493-.76-3.093-.76-4.76C11.333 4.6 10.733 4 10 4z" transform="translate(-1288.000000, -27.000000) translate(1288.000000, 27.000000)"/>
            </g>
        </g>
    </g>
</svg>
